<svg width="970" height="265" viewBox="0 0 970 265" fill="none" xmlns="http://www.w3.org/2000/svg">
<g filter="url(#filter0_dddddd)">
<path d="M591.634 47.8027H631.672C631.521 19.3938 608.191 0.595947 570.862 0.595947C534.211 0.595947 508.322 19.1111 508.547 46.672C508.472 69.286 525.18 81.865 552.499 87.3772L567.852 90.4866C585.011 94.02 590.881 98.0481 591.032 104.62C590.881 111.758 583.957 116.775 570.561 116.775C554.531 116.775 545.048 109.708 544.371 96.4228H504.634C504.784 132.746 530.975 149 571.163 149C610.223 149 633.629 133.17 633.779 104.62C633.629 82.5717 619.63 67.0952 585.613 60.2404L572.969 57.6963C558.369 54.7989 551.822 50.7708 552.198 43.8452C552.273 37.485 557.918 32.8209 570.862 32.8209C584.409 32.8209 590.806 38.4037 591.634 47.8027Z" fill="white"/>
<path d="M634.861 147.304H676.706V99.5322H691.156L718.249 147.304H763.706L732.398 93.3133C748.804 85.8931 758.588 71.83 758.588 51.7601C758.588 20.9485 735.634 2.57467 701.391 2.57467H634.861V147.304ZM676.706 69.0033V33.9516H691.457C706.132 33.9516 714.938 39.3224 714.938 51.7601C714.938 64.1271 706.132 69.0033 691.457 69.0033H676.706Z" fill="white"/>
<path d="M820.894 147.304C867.856 147.304 897.659 120.167 897.659 74.9395C897.659 29.7115 867.856 2.57467 820.292 2.57467H761.59V147.304H820.894ZM803.434 113.949V35.9303H818.185C842.268 35.9303 855.513 44.6932 855.513 74.9395C855.513 105.186 842.268 113.949 819.389 113.949H803.434Z" fill="white"/>
<rect x="782.816" y="30.5007" width="77.915" height="87.2812" fill="white"/>
<path d="M859.706 32.6852H792.043C786.853 32.6852 782.816 36.9142 782.816 41.912V109.575C782.816 114.765 786.853 118.802 792.043 118.802H859.706C864.704 118.802 868.933 114.765 868.933 109.575V41.912C868.933 36.9142 864.704 32.6852 859.706 32.6852ZM853.555 81.1258C853.555 82.4714 852.402 83.4325 851.248 83.4325H833.564V101.117C833.564 102.463 832.41 103.424 831.257 103.424H820.492C819.147 103.424 818.186 102.463 818.186 101.117V83.4325H800.501C799.156 83.4325 798.194 82.4714 798.194 81.1258V70.3612C798.194 69.2079 799.156 68.0545 800.501 68.0545H818.186V50.3699C818.186 49.2165 819.147 48.0632 820.492 48.0632H831.257C832.41 48.0632 833.564 49.2165 833.564 50.3699V68.0545H851.248C852.402 68.0545 853.555 69.2079 853.555 70.3612V81.1258Z" fill="#15598F"/>
<path d="M73 144.73H114.844V88.1946H174.751V56.535H114.844V31.6596H181.374V0H73V144.73Z" fill="white"/>
<path d="M212.259 146.426C227.311 146.426 238.675 141.62 245.674 129.465H246.577V144.73H285.411V70.3861C285.411 50.3162 265.166 34.769 232.127 34.769C197.583 34.769 180.575 51.7295 179.145 71.5168H217.376C218.355 64.8032 223.623 61.6232 231.525 61.6232C238.75 61.6232 243.868 64.7326 243.868 70.3861V70.6688C243.868 76.9583 236.492 78.937 217.075 80.2797C193.218 81.9051 174.629 90.9507 174.629 114.766C174.629 136.391 190.132 146.426 212.259 146.426ZM225.806 121.833C218.731 121.833 213.764 118.582 213.764 112.505C213.764 106.922 217.979 102.611 227.612 101.198C234.235 100.208 239.804 98.9363 244.169 97.2402V106.286C244.169 116.179 235.213 121.833 225.806 121.833Z" fill="white"/>
<path d="M359.363 36.1824H339.495V10.1763H297.952V36.1824H283.201V64.4499H297.952V113.494C297.651 136.249 312.627 147.768 341.301 146.284C350.709 145.79 357.708 143.952 361.471 142.892L355.45 115.473C353.869 115.826 349.805 116.603 347.322 116.603C341.903 116.603 339.495 114.342 339.495 109.819V64.4499H359.363V36.1824Z" fill="white"/>
<path d="M415.63 146.708C447.69 146.708 468.311 132.292 472.225 109.678H434.294C431.886 115.826 425.037 119.289 416.533 119.289C404.19 119.289 396.965 111.657 396.965 101.198V99.5016H472.225V90.456C472.225 55.899 449.647 34.769 414.727 34.769C378.903 34.769 356.024 57.1003 356.024 90.7387C356.024 125.861 378.602 146.708 415.63 146.708ZM396.965 78.0183C397.191 68.6194 405.47 62.1885 415.63 62.1885C425.94 62.1885 433.767 68.69 433.993 78.0183H396.965Z" fill="white"/>
</g>
<defs>
<filter id="filter0_dddddd" x="-7" y="0" width="984.659" height="329" filterUnits="userSpaceOnUse" color-interpolation-filters="sRGB">
<feFlood flood-opacity="0" result="BackgroundImageFix"/>
<feColorMatrix in="SourceAlpha" type="matrix" values="0 0 0 0 0 0 0 0 0 0 0 0 0 0 0 0 0 0 127 0"/>
<feOffset dy="2.76726"/>
<feGaussianBlur stdDeviation="1.1069"/>
<feColorMatrix type="matrix" values="0 0 0 0 0 0 0 0 0 0 0 0 0 0 0 0 0 0 0.0671237 0"/>
<feBlend mode="normal" in2="BackgroundImageFix" result="effect1_dropShadow"/>
<feColorMatrix in="SourceAlpha" type="matrix" values="0 0 0 0 0 0 0 0 0 0 0 0 0 0 0 0 0 0 127 0"/>
<feOffset dy="6.6501"/>
<feGaussianBlur stdDeviation="2.66004"/>
<feColorMatrix type="matrix" values="0 0 0 0 0 0 0 0 0 0 0 0 0 0 0 0 0 0 0.112027 0"/>
<feBlend mode="normal" in2="effect1_dropShadow" result="effect2_dropShadow"/>
<feColorMatrix in="SourceAlpha" type="matrix" values="0 0 0 0 0 0 0 0 0 0 0 0 0 0 0 0 0 0 127 0"/>
<feOffset dy="12.5216"/>
<feGaussianBlur stdDeviation="5.00862"/>
<feColorMatrix type="matrix" values="0 0 0 0 0 0 0 0 0 0 0 0 0 0 0 0 0 0 0.137738 0"/>
<feBlend mode="normal" in2="effect2_dropShadow" result="effect3_dropShadow"/>
<feColorMatrix in="SourceAlpha" type="matrix" values="0 0 0 0 0 0 0 0 0 0 0 0 0 0 0 0 0 0 127 0"/>
<feOffset dy="22.3363"/>
<feGaussianBlur stdDeviation="8.93452"/>
<feColorMatrix type="matrix" values="0 0 0 0 0 0 0 0 0 0 0 0 0 0 0 0 0 0 0.148255 0"/>
<feBlend mode="normal" in2="effect3_dropShadow" result="effect4_dropShadow"/>
<feColorMatrix in="SourceAlpha" type="matrix" values="0 0 0 0 0 0 0 0 0 0 0 0 0 0 0 0 0 0 127 0"/>
<feOffset dy="41.7776"/>
<feGaussianBlur stdDeviation="16.711"/>
<feColorMatrix type="matrix" values="0 0 0 0 0 0 0 0 0 0 0 0 0 0 0 0 0 0 0.151555 0"/>
<feBlend mode="normal" in2="effect4_dropShadow" result="effect5_dropShadow"/>
<feColorMatrix in="SourceAlpha" type="matrix" values="0 0 0 0 0 0 0 0 0 0 0 0 0 0 0 0 0 0 127 0"/>
<feOffset dy="100"/>
<feGaussianBlur stdDeviation="40"/>
<feColorMatrix type="matrix" values="0 0 0 0 0 0 0 0 0 0 0 0 0 0 0 0 0 0 0.19 0"/>
<feBlend mode="normal" in2="effect5_dropShadow" result="effect6_dropShadow"/>
<feBlend mode="normal" in="SourceGraphic" in2="effect6_dropShadow" result="shape"/>
</filter>
</defs>
</svg>
