<svg width="411" height="203" viewBox="0 0 411 203" fill="none" xmlns="http://www.w3.org/2000/svg">
<g filter="url(#filter0_dddddd)">
<path d="M240.949 15.9407H254.301C254.25 6.46716 246.47 0.198608 234.022 0.198608C221.8 0.198608 213.167 6.37289 213.242 15.5636C213.217 23.1047 218.788 27.2995 227.899 29.1376L233.018 30.1745C238.74 31.3528 240.698 32.6961 240.748 34.8877C240.698 37.2679 238.389 38.9411 233.922 38.9411C228.576 38.9411 225.414 36.5845 225.188 32.1541H211.937C211.987 44.267 220.721 49.6872 234.123 49.6872C247.148 49.6872 254.953 44.4084 255.003 34.8877C254.953 27.5351 250.285 22.3742 238.941 20.0883L234.725 19.2399C229.856 18.2737 227.673 16.9305 227.798 14.621C227.823 12.5 229.706 10.9447 234.022 10.9447C238.54 10.9447 240.673 12.8064 240.949 15.9407Z" fill="white"/>
<path d="M255.364 49.1216H269.318V33.191H274.137L283.172 49.1216H298.33L287.89 31.1172C293.361 28.6427 296.623 23.9531 296.623 17.2604C296.623 6.98561 288.969 0.858456 277.55 0.858456H255.364V49.1216ZM269.318 23.0105V11.3217H274.237C279.131 11.3217 282.067 13.1128 282.067 17.2604C282.067 21.3844 279.131 23.0105 274.237 23.0105H269.318Z" fill="white"/>
<path d="M317.401 49.1216C333.061 49.1216 342.999 40.0722 342.999 24.99C342.999 9.90779 333.061 0.858456 317.2 0.858456H297.624V49.1216H317.401ZM311.578 37.9984V11.9816H316.497C324.528 11.9816 328.945 14.9038 328.945 24.99C328.945 35.0763 324.528 37.9984 316.899 37.9984H311.578Z" fill="white"/>
<rect x="304.703" y="10.1712" width="25.9824" height="29.1058" fill="white"/>
<path d="M330.344 11.221H307.78C306.049 11.221 304.703 12.6312 304.703 14.2979V36.8615C304.703 38.5923 306.049 39.9384 307.78 39.9384H330.344C332.01 39.9384 333.421 38.5923 333.421 36.8615V14.2979C333.421 12.6312 332.01 11.221 330.344 11.221ZM328.292 27.3745C328.292 27.8232 327.908 28.1437 327.523 28.1437H321.626V34.0411C321.626 34.4898 321.241 34.8103 320.857 34.8103H317.267C316.818 34.8103 316.498 34.4898 316.498 34.0411V28.1437H310.6C310.152 28.1437 309.831 27.8232 309.831 27.3745V23.7849C309.831 23.4002 310.152 23.0156 310.6 23.0156H316.498V17.1183C316.498 16.7337 316.818 16.3491 317.267 16.3491H320.857C321.241 16.3491 321.626 16.7337 321.626 17.1183V23.0156H327.523C327.908 23.0156 328.292 23.4002 328.292 23.7849V27.3745Z" fill="#15598F"/>
<path d="M68 48.2631H81.9539V29.4103H101.931V18.8528H81.9539V10.5576H104.14V0H68V48.2631Z" fill="white"/>
<path d="M114.439 48.8287C119.458 48.8287 123.248 47.2262 125.582 43.1729H125.883V48.2631H138.833V23.4717C138.833 16.779 132.082 11.5945 121.064 11.5945C109.545 11.5945 103.873 17.2503 103.396 23.8488H116.145C116.472 21.61 118.228 20.5495 120.864 20.5495C123.273 20.5495 124.979 21.5864 124.979 23.4717V23.566C124.979 25.6634 122.52 26.3232 116.045 26.771C108.089 27.313 101.89 30.3294 101.89 38.2711C101.89 45.4823 107.06 48.8287 114.439 48.8287ZM118.956 40.6278C116.597 40.6278 114.941 39.5437 114.941 37.517C114.941 35.6553 116.346 34.2178 119.559 33.7465C121.767 33.4166 123.624 32.9924 125.08 32.4268V35.4432C125.08 38.7425 122.093 40.6278 118.956 40.6278Z" fill="white"/>
<path d="M163.494 12.0658H156.868V3.3935H143.015V12.0658H138.096V21.4922H143.015V37.847C142.914 45.4352 147.909 49.2765 157.471 48.7816C160.608 48.6166 162.942 48.0039 164.197 47.6504L162.189 38.5068C161.662 38.6246 160.307 38.8839 159.478 38.8839C157.671 38.8839 156.868 38.1298 156.868 36.6215V21.4922H163.494V12.0658Z" fill="white"/>
<path d="M182.257 48.923C192.948 48.923 199.825 44.1155 201.13 36.5744H188.481C187.678 38.6246 185.394 39.7794 182.558 39.7794C178.442 39.7794 176.033 37.2342 176.033 33.7465V33.1809H201.13V30.1645C201.13 18.6407 193.601 11.5945 181.956 11.5945C170.01 11.5945 162.38 19.0413 162.38 30.2587C162.38 41.971 169.909 48.923 182.257 48.923ZM176.033 26.0168C176.108 22.8826 178.869 20.7381 182.257 20.7381C185.695 20.7381 188.305 22.9061 188.381 26.0168H176.033Z" fill="white"/>
</g>
<defs>
<filter id="filter0_dddddd" x="0.0987015" y="0" width="410.802" height="202.465" filterUnits="userSpaceOnUse" color-interpolation-filters="sRGB">
<feFlood flood-opacity="0" result="BackgroundImageFix"/>
<feColorMatrix in="SourceAlpha" type="matrix" values="0 0 0 0 0 0 0 0 0 0 0 0 0 0 0 0 0 0 127 0"/>
<feOffset dy="2.34875"/>
<feGaussianBlur stdDeviation="0.939501"/>
<feColorMatrix type="matrix" values="0 0 0 0 0 0 0 0 0 0 0 0 0 0 0 0 0 0 0.104024 0"/>
<feBlend mode="normal" in2="BackgroundImageFix" result="effect1_dropShadow"/>
<feColorMatrix in="SourceAlpha" type="matrix" values="0 0 0 0 0 0 0 0 0 0 0 0 0 0 0 0 0 0 127 0"/>
<feOffset dy="5.64438"/>
<feGaussianBlur stdDeviation="2.25775"/>
<feColorMatrix type="matrix" values="0 0 0 0 0 0 0 0 0 0 0 0 0 0 0 0 0 0 0.14944 0"/>
<feBlend mode="normal" in2="effect1_dropShadow" result="effect2_dropShadow"/>
<feColorMatrix in="SourceAlpha" type="matrix" values="0 0 0 0 0 0 0 0 0 0 0 0 0 0 0 0 0 0 127 0"/>
<feOffset dy="10.6279"/>
<feGaussianBlur stdDeviation="4.25115"/>
<feColorMatrix type="matrix" values="0 0 0 0 0 0 0 0 0 0 0 0 0 0 0 0 0 0 0.185 0"/>
<feBlend mode="normal" in2="effect2_dropShadow" result="effect3_dropShadow"/>
<feColorMatrix in="SourceAlpha" type="matrix" values="0 0 0 0 0 0 0 0 0 0 0 0 0 0 0 0 0 0 127 0"/>
<feOffset dy="18.9583"/>
<feGaussianBlur stdDeviation="7.58332"/>
<feColorMatrix type="matrix" values="0 0 0 0 0 0 0 0 0 0 0 0 0 0 0 0 0 0 0.22056 0"/>
<feBlend mode="normal" in2="effect3_dropShadow" result="effect4_dropShadow"/>
<feColorMatrix in="SourceAlpha" type="matrix" values="0 0 0 0 0 0 0 0 0 0 0 0 0 0 0 0 0 0 127 0"/>
<feOffset dy="35.4594"/>
<feGaussianBlur stdDeviation="14.1838"/>
<feColorMatrix type="matrix" values="0 0 0 0 0 0 0 0 0 0 0 0 0 0 0 0 0 0 0.265976 0"/>
<feBlend mode="normal" in2="effect4_dropShadow" result="effect5_dropShadow"/>
<feColorMatrix in="SourceAlpha" type="matrix" values="0 0 0 0 0 0 0 0 0 0 0 0 0 0 0 0 0 0 127 0"/>
<feOffset dy="84.8766"/>
<feGaussianBlur stdDeviation="33.9506"/>
<feColorMatrix type="matrix" values="0 0 0 0 0 0 0 0 0 0 0 0 0 0 0 0 0 0 0.37 0"/>
<feBlend mode="normal" in2="effect5_dropShadow" result="effect6_dropShadow"/>
<feBlend mode="normal" in="SourceGraphic" in2="effect6_dropShadow" result="shape"/>
</filter>
</defs>
</svg>
